# xmcd
#
# Track frame offsets:
#	150
#	19961
#	34146
#	53418
#	71701
#	91934
#	107863
#	132696
#	151848
#	166718
#	181864
#	204708
#	218804
#	237895
#
# Disc length: 3438 seconds
#
# Revision: 1
# Processed by: cddbd v1.4PL0 Copyright (c) Steve Scherf et al.
# Submitted via: audiograbber 1.82.02
#
DISCID=bc0d6c0e
DTITLE=Brad Davis - I'm Not Going To Let My Blues Bring Me Down
DYEAR=2003
DGENRE=Bluegrass
TTITLE0=I'm Not Going To Let My Blues Bring Me Down
TTITLE1=Old Number Nine
TTITLE2=Dawg Diddy
TTITLE3=Big Timber
TTITLE4=Tell Me Son
TTITLE5=Cypress Walls
TTITLE6=Rank Stranger
TTITLE7=Black Snake
TTITLE8=Where You Belong
TTITLE9=California
TTITLE10=I Love My Guitar
TTITLE11=Sight Of Truth
TTITLE12=Journey Through Misery
TTITLE13=The Clocks Strikes Twice
EXTD=
EXTT0=
EXTT1=
EXTT2=
EXTT3=
EXTT4=
EXTT5=
EXTT6=
EXTT7=
EXTT8=
EXTT9=
EXTT10=
EXTT11=
EXTT12=
EXTT13=
PLAYORDER=
